<?xml version="1.0" encoding="UTF-8"?> <!-- Generator: Adobe Illustrator 26.0.2, SVG Export Plug-In . SVG Version: 6.00 Build 0) --> <svg xmlns="http://www.w3.org/2000/svg" xmlns:xlink="http://www.w3.org/1999/xlink" version="1.1" id="Layer_1" x="0px" y="0px" viewBox="0 0 692 150" style="enable-background:new 0 0 692 150;" xml:space="preserve"> <style type="text/css"> .st0{fill:#D0C09D;} .st1{fill:#FFFFFF;} </style> <path id="Outline_00000140015016441141049620000006574274951253882552_" class="st0" d="M68.4,102.8c0.1,0.5,0.8,3,3,6 c2.1,2.9,6.1,6.9,13.2,10.1c1.6-0.8,9.6-5,24.9-15.8c-9.7-14.1-22-16.3-22.1-16.3l0,0c-1.9-0.4-3.8-0.6-5.5-0.6 c-4.9,0-8.8,1.5-11.2,4.5C68.2,93.6,67.4,97.8,68.4,102.8L68.4,102.8z M106.3,143.2c-9.5,4.4-20.1,6.8-31.2,6.8 c-12.8,0-24.9-3.2-35.5-8.9c0.6,0,0.4,0,0.7,0c10.2-0.2,25.3-5.7,43.8-15.8c9.4,3.6,16.9,4.3,21.5,4.3c4.2,0,6.2-0.4,6.7-0.5 c0.3,0,1.2-0.2,2.3-0.6c1-0.4,1.5-0.9,1.7-1.5c0.1-0.3,0.1-0.8-0.4-1.4c-0.5-0.6-1.3-0.9-2.2-0.9c-0.5,0-1,0.1-1.6,0.2 c-1.2,0.3-2.3,0.4-4.6,0.4c-4.4,0-9.9-1.2-16.2-3.6c4.3-2.5,16.1-9.7,21.7-13.7c4.9,8.3,6.6,15.7,5.1,21.9 c-1.6,6.6-6.2,10.3-7.2,10.8C109.4,141.6,107.9,142.4,106.3,143.2 M150,77.8c-0.7,18.6-8.1,35.4-19.9,48.2l0,0 c-0.2,0.2-0.6,0.5-1.1,0.5c-0.9-0.1-1.7-0.5-2.3-2.6c0,0-3.3-11.8-8.4-20.1c18.3-14.5,26.3-21.4,29.8-24.3 C148.9,78.7,149.6,78.1,150,77.8 M149.1,67.9c-2.1,3.3-5.4,6.9-10.1,11c-8,7.1-20.1,17.3-24.7,20.8c-8.5-12.5-21.9-17-27.9-17.5 c-7.5-1-13.7,0.5-17.8,4.2c-3.6,3.3-5.7,8.4-5.5,13.7c0.4,9.7,5.1,17.2,14.1,22.3c-14.2,7.4-22,9.3-22,9.3l0,0 c-7.1,1.9-21.1,4-28.8-0.7c-0.2-0.1-0.3-0.2-0.4-0.3c-0.8-0.5-0.8-0.5-2-1.4c-1.5-1.3-2.1-2.2-2.8-3.3c-1.9-3.5-2.1-8.1-0.4-12.4 c1-2.5,2.4-4.4,3.8-4.9c0.8-0.3,1.3-0.9,1.3-1.7c0.1-0.9-0.6-1.8-1.5-2.3c-1.1-0.6-2.4-0.4-3.5,0.4c-3.1,1.8-6.8,6.4-8,11.9 C4.7,105,0,90.6,0,75C0,33.6,33.6,0,75,0c38.8,0,70.7,29.4,74.6,67.1C149.6,67.1,149.1,67.9,149.1,67.9z"></path> <path class="st1" d="M228.8,147.5V12.8h-53.2V2.5h117.8v10.2h-53v134.7H228.8z M434.4,147.5l-31-57.4c-2.2-3.8-3.7-5.7-3.7-5.7 l-0.3-0.4V82l1-0.3c16.4-4.6,26.9-19.7,26.9-38.6c0-17.1-8-30.9-21.4-36.8c-5.6-2.4-12.1-3.9-27.2-3.9h-42.3v145h11.7V85.3h39.4 l33.4,62.2H434.4z M348.2,12.8h31.2c12.1,0,17.3,1.4,21.7,3.7c9.1,4.9,14.2,14.5,14.2,27.1c0,19.1-12,31.4-30.6,31.4h-36.5V12.8z M495.5,147.5V2.5h-11.7v145H495.5z M692,74.1C692,32.5,659.6,0,618.2,0c-41.4,0-73.8,32.5-73.8,74.1c0,42.6,32.4,75.9,73.8,75.9 C659.6,150,692,116.6,692,74.1z M679.7,74.1c0,36.6-27,65.3-61.5,65.3s-61.5-28.7-61.5-65.3c0-35.5,27-63.4,61.5-63.4 S679.7,38.5,679.7,74.1z"></path> </svg> 